<?xml version="1.0" standalone="no"?>
<!DOCTYPE svg PUBLIC "-//W3C//DTD SVG 20010904//EN"
 "http://www.w3.org/TR/2001/REC-SVG-20010904/DTD/svg10.dtd">
<svg version="1.0" xmlns="http://www.w3.org/2000/svg"
 width="2000.000000pt" height="2000.000000pt" viewBox="0 0 2000.000000 2000.000000"
 preserveAspectRatio="xMidYMid meet">
<metadata>
Created by potrace 1.14, written by Peter Selinger 2001-2017
</metadata>
<g transform="translate(0.000000,2000.000000) scale(0.100000,-0.100000)"
fill="#000000" stroke="none">
<path d="M9628 19995 c-1 -1 -70 -6 -153 -10 -82 -3 -166 -8 -185 -10 -19 -1
-73 -6 -120 -10 -47 -3 -101 -8 -120 -10 -19 -2 -66 -6 -105 -9 -38 -4 -81 -8
-95 -11 -14 -2 -47 -7 -75 -10 -27 -3 -63 -7 -80 -10 -16 -2 -50 -7 -75 -10
-25 -3 -54 -7 -65 -9 -21 -4 -103 -16 -145 -21 -41 -6 -310 -54 -385 -70 -38
-8 -81 -17 -95 -20 -97 -18 -496 -114 -565 -135 -16 -6 -101 -30 -188 -55
-307 -89 -710 -231 -992 -350 -60 -25 -114 -48 -120 -49 -12 -4 -76 -32 -260
-116 -281 -128 -620 -308 -915 -484 -74 -44 -143 -85 -152 -91 -42 -24 -223
-140 -228 -145 -3 -3 -32 -23 -65 -45 -91 -58 -315 -217 -450 -319 -112 -84
-414 -323 -425 -337 -3 -3 -54 -48 -115 -99 -60 -52 -115 -99 -121 -105 -6 -5
-60 -55 -120 -110 -122 -113 -413 -402 -519 -516 -128 -137 -147 -159 -379
-429 -65 -76 -314 -396 -396 -509 -52 -73 -100 -137 -105 -144 -6 -7 -26 -36
-44 -65 -19 -30 -39 -59 -45 -65 -11 -11 -199 -299 -221 -339 -5 -9 -42 -70
-81 -135 -40 -65 -82 -136 -94 -158 -12 -22 -39 -69 -60 -105 -43 -76 -91
-165 -146 -270 -21 -41 -43 -78 -49 -82 -5 -4 -7 -8 -4 -8 4 0 -29 -72 -72
-161 -324 -658 -594 -1432 -758 -2169 -16 -74 -33 -151 -36 -170 -3 -19 -10
-51 -15 -70 -5 -19 -12 -55 -15 -80 -3 -25 -10 -61 -15 -80 -5 -19 -11 -53
-14 -75 -3 -22 -10 -67 -16 -100 -6 -33 -13 -73 -15 -90 -2 -16 -10 -79 -19
-140 -8 -60 -18 -132 -21 -160 -3 -27 -8 -63 -10 -80 -6 -40 -23 -222 -30
-315 -3 -41 -8 -93 -10 -115 -26 -237 -27 -1151 0 -1425 2 -19 6 -75 10 -125
6 -93 11 -147 20 -225 3 -25 8 -65 11 -90 5 -41 19 -157 29 -235 2 -16 9 -64
16 -105 6 -41 13 -88 15 -105 2 -16 11 -68 20 -115 8 -47 17 -98 20 -115 4
-25 67 -331 79 -385 1 -8 8 -33 13 -55 6 -22 13 -52 16 -66 2 -14 16 -70 31
-125 15 -54 28 -108 31 -119 21 -108 169 -581 259 -830 152 -419 406 -988 593
-1326 16 -30 47 -85 68 -124 183 -336 481 -794 748 -1150 79 -105 271 -349
301 -381 5 -7 26 -31 44 -54 19 -23 40 -48 45 -54 6 -6 40 -45 76 -86 236
-273 600 -640 860 -870 47 -41 92 -81 101 -90 8 -8 38 -34 65 -57 27 -23 59
-50 71 -60 71 -60 249 -202 366 -292 59 -46 183 -136 275 -202 92 -65 172
-122 177 -127 6 -5 15 -11 20 -13 6 -2 71 -44 145 -93 174 -114 181 -119 205
-132 11 -6 85 -50 164 -98 79 -47 145 -86 147 -86 2 0 25 -13 51 -28 121 -71
558 -295 708 -362 497 -224 996 -408 1450 -534 102 -28 322 -86 345 -91 8 -2
47 -11 85 -20 173 -40 449 -97 580 -119 17 -3 59 -10 95 -16 36 -6 79 -13 95
-15 17 -2 46 -7 65 -9 19 -3 55 -8 80 -11 25 -3 56 -8 70 -10 24 -4 84 -11
165 -20 22 -2 65 -6 95 -10 114 -12 217 -21 330 -30 415 -31 1228 -26 1555 9
28 3 76 8 107 11 208 18 412 44 648 81 107 16 390 69 485 89 61 14 121 27 135
29 14 3 45 10 70 17 25 6 52 12 60 14 194 42 876 242 905 265 6 5 12 8 15 8 3
-1 37 9 75 22 39 14 72 25 75 25 3 1 16 6 30 12 14 6 50 19 80 31 86 31 242
92 275 107 17 8 75 32 130 55 156 66 285 125 500 231 271 133 435 223 710 388
182 109 621 395 680 443 11 9 85 65 165 124 222 165 546 430 729 598 259 238
485 465 756 761 15 17 46 52 69 79 22 26 49 58 59 70 10 11 37 43 60 71 23 27
56 65 73 85 43 50 271 342 329 424 113 155 168 233 192 271 14 22 29 42 32 45
4 3 43 61 86 130 44 69 83 127 88 128 4 2 7 8 7 13 0 6 17 36 38 67 73 108
302 508 302 527 0 7 4 15 9 17 11 3 221 423 299 593 224 494 375 917 553 1541
18 66 105 423 113 469 2 11 13 65 24 120 18 88 42 211 57 300 3 17 12 73 20
125 8 52 17 104 19 115 2 11 7 45 10 76 4 31 8 65 10 76 2 10 7 46 11 78 3 33
8 76 10 95 3 19 7 62 11 95 3 33 8 74 10 90 2 17 6 73 9 125 4 52 8 109 10
125 27 208 27 1093 0 1425 -10 126 -16 197 -20 225 -2 17 -6 62 -10 100 -3 39
-7 81 -9 95 -3 14 -7 48 -10 75 -8 68 -15 123 -32 240 -21 148 -24 165 -34
220 -5 28 -12 67 -14 87 -3 21 -11 59 -17 85 -6 27 -12 59 -14 73 -7 52 -83
394 -115 520 -12 47 -24 92 -25 100 -2 8 -4 15 -5 15 -1 0 -3 9 -5 20 -7 33
-112 393 -148 505 -113 350 -272 757 -437 1115 -42 92 -228 464 -268 538 -18
31 -46 83 -64 115 -53 96 -209 360 -281 476 -77 124 -327 487 -429 625 -121
162 -373 481 -429 542 -13 14 -51 57 -84 95 -127 147 -260 288 -455 484 -143
142 -336 326 -406 387 -49 42 -148 129 -158 138 -14 14 -280 231 -326 267 -19
15 -69 53 -110 85 -71 56 -311 230 -360 263 -13 8 -42 29 -65 46 -23 17 -46
33 -51 35 -5 2 -56 35 -114 73 -176 116 -320 206 -330 206 -6 0 -10 5 -10 10
0 6 -4 10 -9 10 -5 0 -45 21 -88 46 -160 95 -308 176 -478 262 -71 36 -131 69
-133 73 -2 5 -10 9 -17 9 -7 0 -73 29 -147 64 -579 277 -1196 498 -1848 661
-79 20 -165 40 -190 45 -25 5 -88 19 -140 30 -52 12 -142 30 -200 41 -143 28
-141 27 -180 33 -19 3 -73 12 -120 20 -47 8 -107 17 -135 21 -27 3 -61 8 -75
10 -81 12 -110 16 -155 20 -27 3 -68 8 -90 11 -52 8 -94 12 -185 19 -41 4 -91
8 -110 10 -19 2 -82 7 -140 10 -58 4 -125 9 -150 11 -52 6 -916 14 -922 9z"/>
</g>
</svg>
